Coordinates
nRows=129
nColumns=2
inDegrees=yes
endheader
time	ankle_angle_r	
3.1875	 -5.135309	
3.25	 -5.242484	
3.3125	 -5.122412	
3.375	 -5.157471	
3.4375	 -5.187988	
3.5	 -5.086263	
3.5625	 -5.188533	
3.625	 -5.203247	
3.6875	 -5.146208	
3.75	 -5.148025	
3.8125	 -5.127498	
3.875	 -5.136399	
3.9375	 -5.242666	
4	 -5.225045	
4.0625	 -5.292983	
4.125	 -5.286444	
4.1875	 -5.271367	
4.25	 -5.317325	
4.3125	 -5.234128	
4.375	 -5.241394	
4.4375	 -5.271367	
4.5	 -5.241757	
4.5625	 -5.288805	
4.625	 -5.293346	
4.6875	 -5.271003	
4.75	 -5.303519	
4.8125	 -5.231222	
4.875	 -5.255199	
4.9375	 -5.243029	
5	 -5.203247	
5.0625	 -5.224137	
5.125	 -5.193438	
5.1875	 -5.177998	
5.25	 -5.223592	
5.3125	 -5.081177	
5.375	 -5.233765	
5.4375	 -5.126953	
5.5	 -5.172729	
5.5625	 -5.240667	
5.625	 -5.233765	
5.6875	 -5.214691	
5.75	 -5.210513	
5.8125	 -5.045754	
5.875	 -5.084446	
5.9375	 -5.065918	
6	 -5.004883	
6.0625	 -5.108970	
6.125	 -5.083720	
6.1875	 -5.180904	
6.25	 -5.235944	
6.3125	 -5.113692	
6.375	 -5.279541	
6.4375	 -5.206517	
6.5	 -5.175636	
6.5625	 -5.232493	
6.625	 -5.233765	
6.6875	 -5.231948	
6.75	 -5.263556	
6.8125	 -5.187988	
6.875	 -5.173456	
6.9375	 -5.233583	
7	 -5.172729	
7.0625	 -5.173093	
7.125	 -5.203247	
7.1875	 -5.233220	
7.25	 -5.219233	
7.3125	 -5.004883	
7.375	 -5.023411	
7.4375	 -5.126953	
7.5	 -5.096436	
7.5625	 -5.125318	
7.625	 -5.047026	
7.6875	 -5.113692	
7.75	 -5.203247	
7.8125	 -5.114056	
7.875	 -5.266825	
7.9375	 -5.261558	
8	 -5.239577	
8.0625	 -5.310059	
8.125	 -5.261013	
8.1875	 -5.252475	
8.25	 -5.310059	
8.3125	 -5.245209	
8.375	 -5.264282	
8.4375	 -5.253201	
8.5	 -5.238124	
8.5625	 -5.279541	
8.625	 -5.238488	
8.6875	 -5.228315	
8.75	 -5.264282	
8.8125	 -5.075909	
8.875	 -5.132403	
8.9375	 -5.142212	
9	 -5.065918	
9.0625	 -5.163465	
9.125	 -5.111694	
9.1875	 -5.212148	
9.25	 -5.081177	
9.3125	 -5.135491	
9.375	 -5.089533	
9.4375	 -5.126953	
9.5	 -5.126226	
9.5625	 -5.180541	
9.625	 -5.172729	
9.6875	 -5.187988	
9.75	 -5.218506	
9.8125	 -4.983630	
9.875	 -5.125500	
9.9375	 -5.181267	
10	 -5.098615	
10.0625	 -5.187988	
10.125	 -5.157471	
10.1875	 -5.138942	
10.25	 -5.182176	
10.3125	 -5.172729	
10.375	 -5.258832	
10.4375	 -5.244300	
10.5	 -5.259196	
10.5625	 -5.289895	
10.625	 -5.279541	
10.6875	 -5.290258	
10.75	 -5.268642	
10.8125	 -5.244845	
10.875	 -5.268279	
10.9375	 -5.245209	
11	 -5.299160	
11.0625	 -5.294800	
11.125	 -5.252293	
11.1875	 -5.203247	
